<svg width="198" height="51" viewBox="0 0 198 51" fill="none" xmlns="http://www.w3.org/2000/svg">
<path d="M0.887722 9.15387C0.887722 5.10788 4.17142 2.64511 9.82994 2.64511C15.1366 2.64511 18.7721 4.75606 18.7721 8.01044C18.7721 9.74024 17.6874 11.0303 15.6057 11.0303C14.0225 11.0303 12.9377 10.268 11.9116 8.53817C10.9147 6.89633 9.7713 6.04608 8.6865 6.04608C7.74831 6.04608 7.16193 6.6911 7.16193 7.74657C7.16193 12.5548 19.2999 12.2617 19.2999 19.9725C19.2999 24.253 15.5764 26.7744 9.50743 26.7744C3.90755 26.7744 0.359985 24.6048 0.359985 21.0573C0.359985 18.917 1.59137 17.539 3.55573 17.539C5.13894 17.539 6.37033 18.4479 7.22057 20.3243C8.12945 22.2593 9.50743 23.3735 10.8268 23.3735C11.9409 23.3735 12.5859 22.6698 12.5859 21.4384C12.5859 16.1904 0.887722 16.7474 0.887722 9.15387Z" fill="white"/>
<path d="M29.9556 8.4209C35.1451 8.4209 38.3994 11.9391 38.3994 17.5977C38.3994 23.2562 35.1451 26.7744 29.9556 26.7744C24.7662 26.7744 21.5118 23.2562 21.5118 17.5977C21.5118 11.9391 24.7662 8.4209 29.9556 8.4209ZM30.8352 22.3766C31.9786 22.3766 32.2425 20.852 31.6268 17.5097C31.0404 14.2846 30.1902 12.8187 29.0761 12.8187C27.9326 12.8187 27.6688 14.3433 28.2845 17.6856C28.8708 20.9107 29.7211 22.3766 30.8352 22.3766Z" fill="white"/>
<path d="M41.4371 22.4353V16.1024C41.4371 14.5485 41.056 13.6983 40.1764 13.2878C39.6194 13.0239 39.3848 12.6428 39.3848 12.2323C39.3848 10.6491 42.9617 8.4209 45.5711 8.4209C47.0663 8.4209 47.8872 9.15387 47.8872 10.5612V19.6793C47.8872 20.9693 48.5323 21.7023 49.5584 21.7023C50.5259 21.7023 51.2296 21.028 51.2296 20.1484V15.9851C51.2296 14.4606 50.8484 13.6103 49.9689 13.2292C49.4118 12.9653 49.1773 12.5842 49.1773 12.1737C49.1773 10.6198 52.7542 8.4209 55.3635 8.4209C56.8588 8.4209 57.6797 9.15387 57.6797 10.5905V19.0636C57.6797 20.6175 58.0609 21.4677 58.9404 21.8782C59.4975 22.1421 59.732 22.5232 59.732 22.963C59.732 24.6635 56.3604 26.7451 53.663 26.7451C52.0212 26.7451 51.2296 25.9828 51.2296 24.6342C51.2296 24.1064 51.1123 23.8426 50.8484 23.8426C50.6432 23.8426 50.438 24.0478 50.2328 24.4876C49.5584 25.9242 47.9459 26.7451 46.0109 26.7451C43.2256 26.7451 41.4371 25.0446 41.4371 22.4353Z" fill="white"/>
<path d="M69.9908 21.0866C69.9908 22.4353 70.3427 23.2562 71.2222 23.8719C71.8086 24.2823 72.0431 24.6928 72.0431 25.1033C72.0431 26.2174 70.1374 26.7744 66.7658 26.7744C63.3941 26.7744 61.4884 26.2174 61.4884 25.1033C61.4884 24.6928 61.7229 24.2823 62.3093 23.8719C63.1889 23.2562 63.5407 22.4353 63.5407 21.0866V16.1317C63.5407 14.5778 63.1596 13.7276 62.28 13.3171C61.7229 13.0533 61.4884 12.6721 61.4884 12.2323C61.4884 10.5318 64.86 8.45022 67.5574 8.45022C69.1992 8.45022 69.9908 9.21251 69.9908 10.5318C69.9908 11.0889 70.1374 11.3528 70.4013 11.3528C70.6358 11.3528 70.8997 11.1475 71.2222 10.5612C72.0138 9.15387 73.2452 8.45022 74.9457 8.45022C76.998 8.45022 78.288 9.50569 78.8158 11.6753L81.1026 21.0866C81.4251 22.4353 82.0115 23.2855 82.8617 23.7253C83.4774 24.0478 83.7413 24.4582 83.7413 24.9273C83.7413 26.1881 81.8649 26.7744 78.3173 26.7744C74.7405 26.7744 72.8347 26.1881 72.8347 25.0739C72.8347 24.6635 73.0986 24.253 73.6263 23.9012C74.4766 23.3148 74.6525 22.5525 74.3007 21.0866L73.0986 16.0438C72.6881 14.314 72.1311 13.6103 71.2222 13.6103C70.4306 13.6103 69.9908 14.1087 69.9908 14.8417V21.0866Z" fill="white"/>
<path d="M94.0995 10.5318V8.56749C94.0995 7.0136 93.7184 6.16336 92.8388 5.7529C92.2818 5.48903 92.0472 5.10788 92.0472 4.6681C92.0472 2.96762 95.4189 0.885986 98.1162 0.885986C99.6994 0.885986 100.55 1.58964 100.55 2.9383V24.5169C100.55 26.0415 100.022 26.7744 98.8785 26.7744C98.0869 26.7744 97.4712 26.4226 96.8848 25.8069C96.4157 25.3085 96.0052 25.0739 95.5948 25.0739C95.243 25.0739 94.8618 25.2499 94.4513 25.6017C93.5718 26.3346 92.3404 26.7744 90.9624 26.7744C86.7405 26.7744 84.0432 22.7284 84.0432 16.6595C84.0432 11.4994 86.0076 8.45022 89.2033 8.45022C90.7572 8.45022 91.9593 9.18319 92.7509 10.5612C93.1027 11.1475 93.3666 11.3528 93.6304 11.3528C93.9529 11.3528 94.0995 11.0889 94.0995 10.5318ZM90.6399 18.184C91.1383 21.1159 91.9886 22.6991 93.1613 22.6991C94.3048 22.6991 94.5979 21.2039 93.9823 17.8909C93.4252 14.9883 92.7215 13.6396 91.6367 13.6396C90.4933 13.6396 90.1415 15.1935 90.6399 18.184Z" fill="white"/>
<path d="M106.952 24.986C107.362 24.986 107.509 24.5755 107.216 24.3117C104.9 22.2007 103.551 18.8877 103.551 14.6658C103.551 7.30679 107.656 2.64511 114.194 2.64511C120.732 2.64511 124.836 7.30679 124.836 14.7244C124.836 22.0541 120.849 26.7451 114.604 26.7451C114.282 26.7451 114.194 27.0969 114.516 27.2728C115.806 27.9765 117.477 28.387 119.09 28.387C121.904 28.387 122.315 26.6572 123.605 26.6572C124.426 26.6572 124.836 27.3608 124.836 28.5922C124.836 31.4361 122.432 33.5177 119.178 33.5177C113.578 33.5177 110.441 27.3901 106.923 27.3901C105.603 27.3901 104.958 28.2697 104.167 28.2697C103.727 28.2697 103.434 27.9765 103.434 27.3901C103.434 26.0121 104.929 24.986 106.952 24.986ZM114.927 22.1714C116.803 22.1714 118.005 19.8552 118.005 16.1317C118.005 11.2941 115.953 7.24815 113.431 7.24815C111.555 7.24815 110.382 9.53501 110.382 13.2292C110.382 18.1254 112.434 22.1714 114.927 22.1714Z" fill="white"/>
<path d="M128.649 22.4353V16.1024C128.649 14.5485 128.268 13.6983 127.388 13.2878C126.831 13.0239 126.597 12.6428 126.597 12.2323C126.597 10.6491 130.173 8.4209 132.783 8.4209C134.278 8.4209 135.099 9.15387 135.099 10.5612V19.6793C135.099 20.9693 135.744 21.7023 136.77 21.7023C137.738 21.7023 138.441 21.028 138.441 20.1484V15.9851C138.441 14.4606 138.06 13.6103 137.181 13.2292C136.624 12.9653 136.389 12.5842 136.389 12.1737C136.389 10.6198 139.966 8.4209 142.575 8.4209C144.071 8.4209 144.891 9.15387 144.891 10.5905V19.0636C144.891 20.6175 145.273 21.4677 146.152 21.8782C146.709 22.1421 146.944 22.5232 146.944 22.963C146.944 24.6635 143.572 26.7451 140.875 26.7451C139.233 26.7451 138.441 25.9828 138.441 24.6342C138.441 24.1064 138.324 23.8426 138.06 23.8426C137.855 23.8426 137.65 24.0478 137.445 24.4876C136.77 25.9242 135.158 26.7451 133.223 26.7451C130.437 26.7451 128.649 25.0446 128.649 22.4353Z" fill="white"/>
<path d="M156.001 20.3243C156.675 21.2039 157.701 21.673 159.02 21.673C159.812 21.673 160.75 21.4971 161.395 21.2625C161.776 21.1159 162.099 21.0573 162.421 21.0573C163.066 21.0573 163.565 21.3798 163.917 22.0541C164.444 23.0803 164.268 24.2823 163.154 25.1912C162.04 26.1001 159.929 26.7744 157.466 26.7744C151.925 26.7744 148.407 23.3735 148.407 17.7149C148.407 12.0564 151.955 8.45022 157.613 8.45022C161.835 8.45022 164.444 10.4439 164.444 13.7569C164.444 17.3924 161.307 19.6207 156.528 19.3568C155.795 19.3275 155.59 19.7966 156.001 20.3243ZM156.675 16.8647C158.229 16.6008 159.314 15.516 159.314 14.2553C159.314 13.2878 158.669 12.6721 157.584 12.6721C156.176 12.6721 155.15 13.7569 155.033 15.3694C154.945 16.6008 155.443 17.0699 156.675 16.8647Z" fill="white"/>
<path d="M167.084 13.6396C167.084 10.3559 169.84 8.45022 174.589 8.45022C178.958 8.45022 182.007 10.0627 182.007 12.4376C182.007 13.8155 180.951 14.7831 179.427 14.7831C178.166 14.7831 177.199 14.1087 176.319 12.7308C175.586 11.5873 174.912 11.0889 174.12 11.0889C173.417 11.0889 173.006 11.4994 173.006 12.203C173.006 15.5747 182.388 14.9003 182.388 21.1745C182.388 24.7514 179.339 26.7744 174.296 26.7744C169.634 26.7744 166.703 25.0446 166.703 22.2593C166.703 20.5882 167.758 19.562 169.459 19.562C170.983 19.562 172.097 20.4123 173.006 22.1714C173.71 23.5494 174.413 24.1357 175.293 24.1357C176.055 24.1357 176.466 23.7253 176.466 22.9044C176.466 19.0636 167.084 19.7379 167.084 13.6396Z" fill="white"/>
<path d="M196.731 25.631C195.675 26.364 194.092 26.7744 192.333 26.7744C188.082 26.7744 186.176 24.341 186.176 18.917V13.7276C186.176 13.1999 185.824 12.848 185.062 12.848C184.182 12.848 183.567 12.3496 183.567 11.3821C183.567 8.74341 188.111 4.43355 190.867 4.43355C192.01 4.43355 192.626 5.19584 192.626 6.51518V7.86384C192.626 8.39158 192.978 8.74341 193.506 8.74341H195.646C196.701 8.74341 197.405 9.44706 197.405 10.5025V11.0889C197.405 12.1444 196.701 12.848 195.646 12.848H193.506C192.978 12.848 192.626 13.1999 192.626 13.7276V17.7443C192.626 20.207 193.476 21.673 194.913 21.673C195.353 21.673 195.763 21.5264 196.262 21.5264C197.024 21.5264 197.493 21.8489 197.786 22.5525C198.285 23.6666 197.903 24.8101 196.731 25.631Z" fill="white"/>
<path d="M59.02 47.18C58.376 47.18 57.838 47.03 57.406 46.73C56.974 46.43 56.648 46.022 56.428 45.506C56.212 44.99 56.104 44.408 56.104 43.76C56.104 43.112 56.212 42.53 56.428 42.014C56.644 41.498 56.962 41.09 57.382 40.79C57.802 40.49 58.32 40.34 58.936 40.34C59.556 40.34 60.096 40.488 60.556 40.784C61.016 41.08 61.372 41.486 61.624 42.002C61.88 42.514 62.008 43.1 62.008 43.76C62.008 44.408 61.882 44.99 61.63 45.506C61.382 46.022 61.034 46.43 60.586 46.73C60.138 47.03 59.616 47.18 59.02 47.18ZM55.828 47V38.36H57.472V42.56H57.268V47H55.828ZM58.756 45.728C59.108 45.728 59.396 45.64 59.62 45.464C59.844 45.288 60.01 45.052 60.118 44.756C60.226 44.456 60.28 44.124 60.28 43.76C60.28 43.4 60.224 43.072 60.112 42.776C60 42.476 59.826 42.238 59.59 42.062C59.358 41.882 59.06 41.792 58.696 41.792C58.356 41.792 58.08 41.874 57.868 42.038C57.66 42.202 57.508 42.432 57.412 42.728C57.316 43.024 57.268 43.368 57.268 43.76C57.268 44.152 57.316 44.496 57.412 44.792C57.508 45.088 57.664 45.318 57.88 45.482C58.1 45.646 58.392 45.728 58.756 45.728ZM63.6875 49.88L64.9355 46.448L64.9595 47.456L62.1395 40.52H63.8315L65.7275 45.428H65.3435L67.2275 40.52H68.8595L65.1995 49.88H63.6875Z" fill="white"/>
<path d="M73.576 47V46.544L75.076 46.508H75.172V47H73.576ZM74.872 47C74.88 46.592 74.884 46.184 74.884 45.776C74.884 45.368 74.884 44.96 74.884 44.552C74.884 44.144 74.884 43.736 74.884 43.328V42.584C74.884 42.176 74.884 41.768 74.884 41.36C74.884 40.952 74.884 40.544 74.884 40.136C74.884 39.728 74.88 39.32 74.872 38.912H75.616C75.608 39.32 75.604 39.732 75.604 40.148C75.604 40.556 75.604 40.972 75.604 41.396C75.604 41.812 75.604 42.24 75.604 42.68V43.412C75.604 43.788 75.604 44.176 75.604 44.576C75.604 44.976 75.604 45.38 75.604 45.788C75.604 46.188 75.608 46.592 75.616 47H74.872ZM75.232 47V46.532H79.444L79.12 46.832L79.42 44.732H79.9L79.804 47H75.232ZM73.576 39.368V38.912H77.032V39.368L75.412 39.404H75.076L73.576 39.368ZM82.6991 47.156C82.2111 47.156 81.8071 47.02 81.4871 46.748C81.1671 46.476 81.0071 46.096 81.0071 45.608C81.0071 45.288 81.0751 45.016 81.2111 44.792C81.3471 44.56 81.5471 44.364 81.8111 44.204C82.0831 44.036 82.4231 43.892 82.8311 43.772C83.0791 43.7 83.3271 43.632 83.5751 43.568C83.8311 43.496 84.0831 43.428 84.3311 43.364C84.5791 43.292 84.8271 43.224 85.0751 43.16V43.52C84.7311 43.616 84.3831 43.716 84.0311 43.82C83.6791 43.924 83.3351 44.028 82.9991 44.132C82.6871 44.228 82.4311 44.344 82.2311 44.48C82.0311 44.608 81.8831 44.756 81.7871 44.924C81.6991 45.092 81.6551 45.284 81.6551 45.5C81.6551 45.86 81.7671 46.14 81.9911 46.34C82.2151 46.54 82.5271 46.64 82.9271 46.64C83.1831 46.64 83.4191 46.588 83.6351 46.484C83.8511 46.38 84.0631 46.236 84.2711 46.052C84.4871 45.86 84.7231 45.636 84.9791 45.38L84.9911 45.932H84.7151C84.5551 46.164 84.3791 46.372 84.1871 46.556C83.9951 46.74 83.7791 46.888 83.5391 47C83.2991 47.104 83.0191 47.156 82.6991 47.156ZM85.8911 47.132C85.5711 47.132 85.3191 47.024 85.1351 46.808C84.9591 46.592 84.8631 46.252 84.8471 45.788L84.8231 45.776V42.992C84.8231 42.592 84.7671 42.272 84.6551 42.032C84.5511 41.792 84.3871 41.62 84.1631 41.516C83.9471 41.412 83.6711 41.36 83.3351 41.36C83.0471 41.36 82.7911 41.396 82.5671 41.468C82.3431 41.532 82.1311 41.62 81.9311 41.732L82.2431 41.384L82.0151 42.404C81.9911 42.556 81.9391 42.668 81.8591 42.74C81.7871 42.812 81.6871 42.848 81.5591 42.848C81.4391 42.848 81.3431 42.812 81.2711 42.74C81.2071 42.668 81.1671 42.584 81.1511 42.488C81.2791 41.992 81.5431 41.612 81.9431 41.348C82.3431 41.076 82.8511 40.94 83.4671 40.94C83.8831 40.94 84.2391 41.008 84.5351 41.144C84.8311 41.28 85.0591 41.492 85.2191 41.78C85.3791 42.068 85.4591 42.44 85.4591 42.896V45.704C85.4591 46.064 85.5151 46.312 85.6271 46.448C85.7471 46.576 85.9031 46.64 86.0951 46.64C86.2151 46.64 86.3191 46.624 86.4071 46.592C86.4951 46.552 86.5671 46.512 86.6231 46.472L86.7671 46.784C86.6711 46.872 86.5511 46.952 86.4071 47.024C86.2631 47.096 86.0911 47.132 85.8911 47.132ZM87.4379 47V46.58L88.7819 46.532H89.0099L90.3179 46.58V47H87.4379ZM88.5659 47C88.5659 46.744 88.5659 46.468 88.5659 46.172C88.5739 45.876 88.5779 45.576 88.5779 45.272C88.5779 44.968 88.5779 44.676 88.5779 44.396V43.772C88.5779 43.532 88.5779 43.3 88.5779 43.076C88.5779 42.852 88.5739 42.632 88.5659 42.416C88.5659 42.192 88.5659 41.972 88.5659 41.756L87.3899 41.744V41.372L88.8419 41.048L89.0819 41.084L89.1779 42.308H89.2139V44.396C89.2139 44.676 89.2139 44.968 89.2139 45.272C89.2219 45.576 89.2259 45.876 89.2259 46.172C89.2259 46.468 89.2259 46.744 89.2259 47H88.5659ZM91.5419 47V46.58L92.8739 46.532H93.1019L94.4219 46.58V47H91.5419ZM92.6579 47C92.6579 46.744 92.6579 46.468 92.6579 46.172C92.6659 45.876 92.6699 45.576 92.6699 45.272C92.6699 44.968 92.6699 44.676 92.6699 44.396V43.064C92.6699 42.512 92.5579 42.116 92.3339 41.876C92.1099 41.628 91.7899 41.504 91.3739 41.504C91.1259 41.504 90.8779 41.548 90.6299 41.636C90.3899 41.724 90.1379 41.856 89.8739 42.032C89.6179 42.208 89.3459 42.428 89.0579 42.692L89.0219 42.236H89.2859C89.5019 41.964 89.7259 41.732 89.9579 41.54C90.1979 41.348 90.4499 41.2 90.7139 41.096C90.9779 40.992 91.2619 40.94 91.5659 40.94C92.1099 40.94 92.5339 41.104 92.8379 41.432C93.1499 41.76 93.3059 42.264 93.3059 42.944V44.396C93.3059 44.676 93.3059 44.968 93.3059 45.272C93.3139 45.576 93.3179 45.876 93.3179 46.172C93.3179 46.468 93.3179 46.744 93.3179 47H92.6579ZM97.786 49.928C97.242 49.928 96.782 49.86 96.406 49.724C96.03 49.588 95.742 49.4 95.542 49.16C95.342 48.92 95.242 48.644 95.242 48.332C95.242 48.068 95.302 47.844 95.422 47.66C95.542 47.476 95.714 47.316 95.938 47.18C96.162 47.044 96.43 46.928 96.742 46.832L96.874 46.94C96.65 47.036 96.466 47.144 96.322 47.264C96.178 47.392 96.07 47.532 95.998 47.684C95.926 47.844 95.89 48.028 95.89 48.236C95.89 48.484 95.958 48.7 96.094 48.884C96.23 49.076 96.442 49.224 96.73 49.328C97.018 49.44 97.386 49.496 97.834 49.496C98.33 49.496 98.754 49.424 99.106 49.28C99.466 49.144 99.738 48.96 99.922 48.728C100.114 48.504 100.21 48.256 100.21 47.984C100.21 47.688 100.11 47.452 99.91 47.276C99.71 47.1 99.37 47.012 98.89 47.012H97.21C97.09 47.012 96.966 47.012 96.838 47.012C96.718 47.012 96.598 47.008 96.478 47V46.832C96.222 46.768 96.006 46.664 95.83 46.52C95.662 46.368 95.578 46.16 95.578 45.896C95.578 45.632 95.666 45.416 95.842 45.248C96.018 45.08 96.234 44.928 96.49 44.792V44.588L96.97 44.636C96.698 44.844 96.498 45.028 96.37 45.188C96.242 45.34 96.178 45.52 96.178 45.728C96.178 45.928 96.262 46.1 96.43 46.244C96.598 46.38 96.878 46.448 97.27 46.448H98.998C99.398 46.448 99.734 46.508 100.006 46.628C100.278 46.748 100.482 46.912 100.618 47.12C100.754 47.336 100.822 47.588 100.822 47.876C100.822 48.156 100.746 48.42 100.594 48.668C100.45 48.916 100.242 49.132 99.97 49.316C99.706 49.508 99.386 49.656 99.01 49.76C98.642 49.872 98.234 49.928 97.786 49.928ZM97.738 45.008C97.298 45.008 96.91 44.924 96.574 44.756C96.238 44.58 95.974 44.34 95.782 44.036C95.598 43.732 95.506 43.384 95.506 42.992C95.506 42.6 95.598 42.252 95.782 41.948C95.974 41.636 96.238 41.392 96.574 41.216C96.91 41.032 97.298 40.94 97.738 40.94C97.978 40.94 98.198 40.968 98.398 41.024C98.598 41.08 98.774 41.156 98.926 41.252C99.078 41.34 99.202 41.44 99.298 41.552L99.358 41.564C99.55 41.732 99.698 41.936 99.802 42.176C99.906 42.408 99.958 42.668 99.958 42.956C99.958 43.356 99.862 43.712 99.67 44.024C99.478 44.328 99.214 44.568 98.878 44.744C98.55 44.92 98.17 45.008 97.738 45.008ZM97.726 44.6C98.046 44.6 98.326 44.532 98.566 44.396C98.806 44.252 98.99 44.06 99.118 43.82C99.254 43.572 99.322 43.288 99.322 42.968C99.322 42.656 99.254 42.38 99.118 42.14C98.99 41.892 98.806 41.7 98.566 41.564C98.334 41.42 98.058 41.348 97.738 41.348C97.418 41.348 97.138 41.42 96.898 41.564C96.666 41.7 96.482 41.892 96.346 42.14C96.218 42.38 96.154 42.66 96.154 42.98C96.154 43.292 96.218 43.572 96.346 43.82C96.474 44.06 96.658 44.252 96.898 44.396C97.138 44.532 97.414 44.6 97.726 44.6ZM99.01 41.696V41.456H99.334L100.618 41L100.942 41.036V41.696H99.01ZM104.587 47.144C104.019 47.144 103.579 46.98 103.267 46.652C102.955 46.316 102.799 45.8 102.799 45.104L102.811 41.408L103.075 41.72L101.623 41.576V41.216L103.219 41.072L103.459 41.12L103.435 42.404V44.972C103.435 45.54 103.547 45.952 103.771 46.208C104.003 46.456 104.335 46.58 104.767 46.58C105.031 46.58 105.287 46.536 105.535 46.448C105.791 46.352 106.039 46.216 106.279 46.04C106.527 45.864 106.779 45.656 107.035 45.416L107.095 45.872H106.819C106.619 46.12 106.407 46.34 106.183 46.532C105.967 46.724 105.727 46.876 105.463 46.988C105.199 47.092 104.907 47.144 104.587 47.144ZM106.987 47.06L106.939 45.776H106.891L106.903 41.684L105.715 41.588V41.216L107.311 41.072L107.551 41.12L107.527 42.404V46.508L108.655 46.616V47L106.987 47.06ZM111.422 47.156C110.934 47.156 110.53 47.02 110.21 46.748C109.89 46.476 109.73 46.096 109.73 45.608C109.73 45.288 109.798 45.016 109.934 44.792C110.07 44.56 110.27 44.364 110.534 44.204C110.806 44.036 111.146 43.892 111.554 43.772C111.802 43.7 112.05 43.632 112.298 43.568C112.554 43.496 112.806 43.428 113.054 43.364C113.302 43.292 113.55 43.224 113.798 43.16V43.52C113.454 43.616 113.106 43.716 112.754 43.82C112.402 43.924 112.058 44.028 111.722 44.132C111.41 44.228 111.154 44.344 110.954 44.48C110.754 44.608 110.606 44.756 110.51 44.924C110.422 45.092 110.378 45.284 110.378 45.5C110.378 45.86 110.49 46.14 110.714 46.34C110.938 46.54 111.25 46.64 111.65 46.64C111.906 46.64 112.142 46.588 112.358 46.484C112.574 46.38 112.786 46.236 112.994 46.052C113.21 45.86 113.446 45.636 113.702 45.38L113.714 45.932H113.438C113.278 46.164 113.102 46.372 112.91 46.556C112.718 46.74 112.502 46.888 112.262 47C112.022 47.104 111.742 47.156 111.422 47.156ZM114.614 47.132C114.294 47.132 114.042 47.024 113.858 46.808C113.682 46.592 113.586 46.252 113.57 45.788L113.546 45.776V42.992C113.546 42.592 113.49 42.272 113.378 42.032C113.274 41.792 113.11 41.62 112.886 41.516C112.67 41.412 112.394 41.36 112.058 41.36C111.77 41.36 111.514 41.396 111.29 41.468C111.066 41.532 110.854 41.62 110.654 41.732L110.966 41.384L110.738 42.404C110.714 42.556 110.662 42.668 110.582 42.74C110.51 42.812 110.41 42.848 110.282 42.848C110.162 42.848 110.066 42.812 109.994 42.74C109.93 42.668 109.89 42.584 109.874 42.488C110.002 41.992 110.266 41.612 110.666 41.348C111.066 41.076 111.574 40.94 112.19 40.94C112.606 40.94 112.962 41.008 113.258 41.144C113.554 41.28 113.782 41.492 113.942 41.78C114.102 42.068 114.182 42.44 114.182 42.896V45.704C114.182 46.064 114.238 46.312 114.35 46.448C114.47 46.576 114.626 46.64 114.818 46.64C114.938 46.64 115.042 46.624 115.13 46.592C115.218 46.552 115.29 46.512 115.346 46.472L115.49 46.784C115.394 46.872 115.274 46.952 115.13 47.024C114.986 47.096 114.814 47.132 114.614 47.132ZM118.681 49.928C118.137 49.928 117.677 49.86 117.301 49.724C116.925 49.588 116.637 49.4 116.437 49.16C116.237 48.92 116.137 48.644 116.137 48.332C116.137 48.068 116.197 47.844 116.317 47.66C116.437 47.476 116.609 47.316 116.833 47.18C117.057 47.044 117.325 46.928 117.637 46.832L117.769 46.94C117.545 47.036 117.361 47.144 117.217 47.264C117.073 47.392 116.965 47.532 116.893 47.684C116.821 47.844 116.785 48.028 116.785 48.236C116.785 48.484 116.853 48.7 116.989 48.884C117.125 49.076 117.337 49.224 117.625 49.328C117.913 49.44 118.281 49.496 118.729 49.496C119.225 49.496 119.649 49.424 120.001 49.28C120.361 49.144 120.633 48.96 120.817 48.728C121.009 48.504 121.105 48.256 121.105 47.984C121.105 47.688 121.005 47.452 120.805 47.276C120.605 47.1 120.265 47.012 119.785 47.012H118.105C117.985 47.012 117.861 47.012 117.733 47.012C117.613 47.012 117.493 47.008 117.373 47V46.832C117.117 46.768 116.901 46.664 116.725 46.52C116.557 46.368 116.473 46.16 116.473 45.896C116.473 45.632 116.561 45.416 116.737 45.248C116.913 45.08 117.129 44.928 117.385 44.792V44.588L117.865 44.636C117.593 44.844 117.393 45.028 117.265 45.188C117.137 45.34 117.073 45.52 117.073 45.728C117.073 45.928 117.157 46.1 117.325 46.244C117.493 46.38 117.773 46.448 118.165 46.448H119.893C120.293 46.448 120.629 46.508 120.901 46.628C121.173 46.748 121.377 46.912 121.513 47.12C121.649 47.336 121.717 47.588 121.717 47.876C121.717 48.156 121.641 48.42 121.489 48.668C121.345 48.916 121.137 49.132 120.865 49.316C120.601 49.508 120.281 49.656 119.905 49.76C119.537 49.872 119.129 49.928 118.681 49.928ZM118.633 45.008C118.193 45.008 117.805 44.924 117.469 44.756C117.133 44.58 116.869 44.34 116.677 44.036C116.493 43.732 116.401 43.384 116.401 42.992C116.401 42.6 116.493 42.252 116.677 41.948C116.869 41.636 117.133 41.392 117.469 41.216C117.805 41.032 118.193 40.94 118.633 40.94C118.873 40.94 119.093 40.968 119.293 41.024C119.493 41.08 119.669 41.156 119.821 41.252C119.973 41.34 120.097 41.44 120.193 41.552L120.253 41.564C120.445 41.732 120.593 41.936 120.697 42.176C120.801 42.408 120.853 42.668 120.853 42.956C120.853 43.356 120.757 43.712 120.565 44.024C120.373 44.328 120.109 44.568 119.773 44.744C119.445 44.92 119.065 45.008 118.633 45.008ZM118.621 44.6C118.941 44.6 119.221 44.532 119.461 44.396C119.701 44.252 119.885 44.06 120.013 43.82C120.149 43.572 120.217 43.288 120.217 42.968C120.217 42.656 120.149 42.38 120.013 42.14C119.885 41.892 119.701 41.7 119.461 41.564C119.229 41.42 118.953 41.348 118.633 41.348C118.313 41.348 118.033 41.42 117.793 41.564C117.561 41.7 117.377 41.892 117.241 42.14C117.113 42.38 117.049 42.66 117.049 42.98C117.049 43.292 117.113 43.572 117.241 43.82C117.369 44.06 117.553 44.252 117.793 44.396C118.033 44.532 118.309 44.6 118.621 44.6ZM119.905 41.696V41.456H120.229L121.513 41L121.837 41.036V41.696H119.905ZM125.735 47.144C125.167 47.144 124.667 47.028 124.235 46.796C123.811 46.556 123.475 46.208 123.227 45.752C122.987 45.296 122.867 44.744 122.867 44.096C122.867 43.44 122.987 42.88 123.227 42.416C123.475 41.944 123.807 41.58 124.223 41.324C124.639 41.068 125.103 40.94 125.615 40.94C126.127 40.94 126.563 41.044 126.923 41.252C127.283 41.46 127.555 41.744 127.739 42.104C127.931 42.456 128.027 42.86 128.027 43.316C128.027 43.468 128.019 43.612 128.003 43.748C127.995 43.876 127.983 43.984 127.967 44.072H123.299V43.664H127.247C127.311 43.624 127.355 43.564 127.379 43.484C127.403 43.404 127.415 43.308 127.415 43.196C127.415 42.844 127.347 42.532 127.211 42.26C127.075 41.98 126.871 41.764 126.599 41.612C126.335 41.452 126.007 41.372 125.615 41.372C125.223 41.372 124.871 41.476 124.559 41.684C124.247 41.884 123.999 42.18 123.815 42.572C123.631 42.964 123.539 43.44 123.539 44C123.539 44.576 123.635 45.06 123.827 45.452C124.027 45.844 124.299 46.14 124.643 46.34C124.995 46.532 125.399 46.628 125.855 46.628C126.295 46.628 126.663 46.548 126.959 46.388C127.263 46.228 127.531 46.024 127.763 45.776L128.027 46.016C127.875 46.224 127.695 46.416 127.487 46.592C127.279 46.76 127.031 46.896 126.743 47C126.455 47.096 126.119 47.144 125.735 47.144ZM132.158 47V46.544L133.682 46.508H133.982L135.65 46.556V47H132.158ZM133.454 47C133.462 46.592 133.466 46.184 133.466 45.776C133.466 45.368 133.466 44.96 133.466 44.552C133.466 44.144 133.466 43.736 133.466 43.328V42.584C133.466 42.176 133.466 41.768 133.466 41.36C133.466 40.952 133.466 40.544 133.466 40.136C133.466 39.728 133.462 39.32 133.454 38.912H134.198C134.19 39.32 134.186 39.728 134.186 40.136C134.186 40.544 134.186 40.952 134.186 41.36C134.186 41.76 134.186 42.168 134.186 42.584V43.424C134.186 43.8 134.186 44.188 134.186 44.588C134.186 44.988 134.186 45.388 134.186 45.788C134.186 46.188 134.19 46.592 134.198 47H133.454ZM133.85 43.712V43.268H134.99C135.638 43.268 136.158 43.188 136.55 43.028C136.95 42.868 137.242 42.64 137.426 42.344C137.618 42.048 137.714 41.692 137.714 41.276C137.714 40.652 137.522 40.18 137.138 39.86C136.762 39.532 136.154 39.368 135.314 39.368H133.898V38.912H135.398C136.07 38.912 136.63 39.008 137.078 39.2C137.534 39.384 137.874 39.652 138.098 40.004C138.33 40.348 138.446 40.768 138.446 41.264C138.446 41.744 138.322 42.168 138.074 42.536C137.826 42.904 137.45 43.192 136.946 43.4C136.442 43.608 135.806 43.712 135.038 43.712H133.85ZM132.158 39.368V38.912H133.754V39.404H133.634L132.158 39.368ZM139.398 47V46.58L140.778 46.532H141.006L142.374 46.58V47H139.398ZM140.562 47C140.562 46.728 140.562 46.448 140.562 46.16C140.57 45.864 140.574 45.568 140.574 45.272C140.574 44.968 140.574 44.676 140.574 44.396V38.828L139.362 38.732V38.372L140.97 38.144L141.222 38.168L141.21 39.656V44.396C141.21 44.676 141.21 44.968 141.21 45.272C141.218 45.568 141.222 45.864 141.222 46.16C141.222 46.448 141.222 46.728 141.222 47H140.562ZM145.148 47.156C144.66 47.156 144.256 47.02 143.936 46.748C143.616 46.476 143.456 46.096 143.456 45.608C143.456 45.288 143.524 45.016 143.66 44.792C143.796 44.56 143.996 44.364 144.26 44.204C144.532 44.036 144.872 43.892 145.28 43.772C145.528 43.7 145.776 43.632 146.024 43.568C146.28 43.496 146.532 43.428 146.78 43.364C147.028 43.292 147.276 43.224 147.524 43.16V43.52C147.18 43.616 146.832 43.716 146.48 43.82C146.128 43.924 145.784 44.028 145.448 44.132C145.136 44.228 144.88 44.344 144.68 44.48C144.48 44.608 144.332 44.756 144.236 44.924C144.148 45.092 144.104 45.284 144.104 45.5C144.104 45.86 144.216 46.14 144.44 46.34C144.664 46.54 144.976 46.64 145.376 46.64C145.632 46.64 145.868 46.588 146.084 46.484C146.3 46.38 146.512 46.236 146.72 46.052C146.936 45.86 147.172 45.636 147.428 45.38L147.44 45.932H147.164C147.004 46.164 146.828 46.372 146.636 46.556C146.444 46.74 146.228 46.888 145.988 47C145.748 47.104 145.468 47.156 145.148 47.156ZM148.34 47.132C148.02 47.132 147.768 47.024 147.584 46.808C147.408 46.592 147.312 46.252 147.296 45.788L147.272 45.776V42.992C147.272 42.592 147.216 42.272 147.104 42.032C147 41.792 146.836 41.62 146.612 41.516C146.396 41.412 146.12 41.36 145.784 41.36C145.496 41.36 145.24 41.396 145.016 41.468C144.792 41.532 144.58 41.62 144.38 41.732L144.692 41.384L144.464 42.404C144.44 42.556 144.388 42.668 144.308 42.74C144.236 42.812 144.136 42.848 144.008 42.848C143.888 42.848 143.792 42.812 143.72 42.74C143.656 42.668 143.616 42.584 143.6 42.488C143.728 41.992 143.992 41.612 144.392 41.348C144.792 41.076 145.3 40.94 145.916 40.94C146.332 40.94 146.688 41.008 146.984 41.144C147.28 41.28 147.508 41.492 147.668 41.78C147.828 42.068 147.908 42.44 147.908 42.896V45.704C147.908 46.064 147.964 46.312 148.076 46.448C148.196 46.576 148.352 46.64 148.544 46.64C148.664 46.64 148.768 46.624 148.856 46.592C148.944 46.552 149.016 46.512 149.072 46.472L149.216 46.784C149.12 46.872 149 46.952 148.856 47.024C148.712 47.096 148.54 47.132 148.34 47.132ZM150.216 49.988C150 49.988 149.816 49.964 149.664 49.916C149.512 49.868 149.392 49.808 149.304 49.736C149.224 49.664 149.172 49.584 149.148 49.496C149.18 49.392 149.244 49.304 149.34 49.232C149.436 49.168 149.564 49.136 149.724 49.136C149.892 49.136 150.04 49.164 150.168 49.22C150.296 49.284 150.424 49.368 150.552 49.472L150.828 49.712L150.528 49.7L150.684 49.64C150.908 49.536 151.112 49.392 151.296 49.208C151.488 49.024 151.664 48.796 151.824 48.524C151.992 48.26 152.148 47.952 152.292 47.6L152.52 47.048L152.664 47.024L153.696 43.892L154.74 41.084H155.292L152.772 47.504C152.572 48.032 152.348 48.48 152.1 48.848C151.86 49.224 151.584 49.508 151.272 49.7C150.968 49.892 150.616 49.988 150.216 49.988ZM152.412 47.648L149.988 41.084H150.708L152.676 46.748L152.928 46.808L152.412 47.648ZM149.328 41.492V41.084H152.004V41.492L150.672 41.564H150.408L149.328 41.492ZM153.444 41.492V41.084H155.928V41.492L154.944 41.564H154.692L153.444 41.492ZM158.981 49.928C158.437 49.928 157.977 49.86 157.601 49.724C157.225 49.588 156.937 49.4 156.737 49.16C156.537 48.92 156.437 48.644 156.437 48.332C156.437 48.068 156.497 47.844 156.617 47.66C156.737 47.476 156.909 47.316 157.133 47.18C157.357 47.044 157.625 46.928 157.937 46.832L158.069 46.94C157.845 47.036 157.661 47.144 157.517 47.264C157.373 47.392 157.265 47.532 157.193 47.684C157.121 47.844 157.085 48.028 157.085 48.236C157.085 48.484 157.153 48.7 157.289 48.884C157.425 49.076 157.637 49.224 157.925 49.328C158.213 49.44 158.581 49.496 159.029 49.496C159.525 49.496 159.949 49.424 160.301 49.28C160.661 49.144 160.933 48.96 161.117 48.728C161.309 48.504 161.405 48.256 161.405 47.984C161.405 47.688 161.305 47.452 161.105 47.276C160.905 47.1 160.565 47.012 160.085 47.012H158.405C158.285 47.012 158.161 47.012 158.033 47.012C157.913 47.012 157.793 47.008 157.673 47V46.832C157.417 46.768 157.201 46.664 157.025 46.52C156.857 46.368 156.773 46.16 156.773 45.896C156.773 45.632 156.861 45.416 157.037 45.248C157.213 45.08 157.429 44.928 157.685 44.792V44.588L158.165 44.636C157.893 44.844 157.693 45.028 157.565 45.188C157.437 45.34 157.373 45.52 157.373 45.728C157.373 45.928 157.457 46.1 157.625 46.244C157.793 46.38 158.073 46.448 158.465 46.448H160.193C160.593 46.448 160.929 46.508 161.201 46.628C161.473 46.748 161.677 46.912 161.813 47.12C161.949 47.336 162.017 47.588 162.017 47.876C162.017 48.156 161.941 48.42 161.789 48.668C161.645 48.916 161.437 49.132 161.165 49.316C160.901 49.508 160.581 49.656 160.205 49.76C159.837 49.872 159.429 49.928 158.981 49.928ZM158.933 45.008C158.493 45.008 158.105 44.924 157.769 44.756C157.433 44.58 157.169 44.34 156.977 44.036C156.793 43.732 156.701 43.384 156.701 42.992C156.701 42.6 156.793 42.252 156.977 41.948C157.169 41.636 157.433 41.392 157.769 41.216C158.105 41.032 158.493 40.94 158.933 40.94C159.173 40.94 159.393 40.968 159.593 41.024C159.793 41.08 159.969 41.156 160.121 41.252C160.273 41.34 160.397 41.44 160.493 41.552L160.553 41.564C160.745 41.732 160.893 41.936 160.997 42.176C161.101 42.408 161.153 42.668 161.153 42.956C161.153 43.356 161.057 43.712 160.865 44.024C160.673 44.328 160.409 44.568 160.073 44.744C159.745 44.92 159.365 45.008 158.933 45.008ZM158.921 44.6C159.241 44.6 159.521 44.532 159.761 44.396C160.001 44.252 160.185 44.06 160.313 43.82C160.449 43.572 160.517 43.288 160.517 42.968C160.517 42.656 160.449 42.38 160.313 42.14C160.185 41.892 160.001 41.7 159.761 41.564C159.529 41.42 159.253 41.348 158.933 41.348C158.613 41.348 158.333 41.42 158.093 41.564C157.861 41.7 157.677 41.892 157.541 42.14C157.413 42.38 157.349 42.66 157.349 42.98C157.349 43.292 157.413 43.572 157.541 43.82C157.669 44.06 157.853 44.252 158.093 44.396C158.333 44.532 158.609 44.6 158.921 44.6ZM160.205 41.696V41.456H160.529L161.813 41L162.137 41.036V41.696H160.205ZM163.118 47V46.58L164.45 46.532H164.69L166.286 46.58V47H163.118ZM164.234 47C164.234 46.744 164.234 46.468 164.234 46.172C164.242 45.876 164.246 45.576 164.246 45.272C164.246 44.968 164.246 44.676 164.246 44.396V43.772C164.246 43.532 164.246 43.3 164.246 43.076C164.246 42.852 164.242 42.632 164.234 42.416C164.234 42.192 164.234 41.972 164.234 41.756L163.058 41.744V41.372L164.522 41.048L164.762 41.084L164.834 42.62L164.882 42.632V44.396C164.882 44.676 164.882 44.968 164.882 45.272C164.89 45.576 164.894 45.876 164.894 46.172C164.894 46.468 164.894 46.744 164.894 47H164.234ZM164.798 43.256L164.738 42.608H164.954C165.114 42.288 165.294 42.004 165.494 41.756C165.694 41.508 165.91 41.316 166.142 41.18C166.382 41.044 166.642 40.976 166.922 40.976C167.178 40.976 167.382 41.02 167.534 41.108C167.686 41.196 167.786 41.296 167.834 41.408C167.826 41.552 167.774 41.68 167.678 41.792C167.582 41.896 167.438 41.948 167.246 41.948C167.102 41.948 166.978 41.916 166.874 41.852C166.77 41.788 166.666 41.712 166.562 41.624L166.334 41.42L166.886 41.432C166.438 41.52 166.042 41.724 165.698 42.044C165.362 42.356 165.062 42.76 164.798 43.256ZM171.414 47.144C170.918 47.144 170.45 47.028 170.01 46.796C169.578 46.556 169.226 46.208 168.954 45.752C168.69 45.288 168.558 44.724 168.558 44.06C168.558 43.388 168.69 42.82 168.954 42.356C169.226 41.892 169.578 41.54 170.01 41.3C170.45 41.06 170.918 40.94 171.414 40.94C171.91 40.94 172.374 41.06 172.806 41.3C173.238 41.54 173.59 41.892 173.862 42.356C174.134 42.812 174.27 43.372 174.27 44.036C174.27 44.708 174.134 45.276 173.862 45.74C173.59 46.196 173.238 46.544 172.806 46.784C172.374 47.024 171.91 47.144 171.414 47.144ZM171.414 46.712C171.83 46.712 172.202 46.612 172.53 46.412C172.858 46.212 173.114 45.916 173.298 45.524C173.482 45.124 173.574 44.64 173.574 44.072C173.574 43.488 173.482 42.996 173.298 42.596C173.114 42.196 172.858 41.892 172.53 41.684C172.202 41.476 171.83 41.372 171.414 41.372C170.998 41.372 170.626 41.476 170.298 41.684C169.97 41.884 169.714 42.184 169.53 42.584C169.346 42.976 169.254 43.46 169.254 44.036C169.254 44.612 169.346 45.1 169.53 45.5C169.714 45.9 169.97 46.204 170.298 46.412C170.626 46.612 170.998 46.712 171.414 46.712ZM178.122 47.144C177.554 47.144 177.114 46.98 176.802 46.652C176.49 46.316 176.334 45.8 176.334 45.104L176.346 41.408L176.61 41.72L175.158 41.576V41.216L176.754 41.072L176.994 41.12L176.97 42.404V44.972C176.97 45.54 177.082 45.952 177.306 46.208C177.538 46.456 177.87 46.58 178.302 46.58C178.566 46.58 178.822 46.536 179.07 46.448C179.326 46.352 179.574 46.216 179.814 46.04C180.062 45.864 180.314 45.656 180.57 45.416L180.63 45.872H180.354C180.154 46.12 179.942 46.34 179.718 46.532C179.502 46.724 179.262 46.876 178.998 46.988C178.734 47.092 178.442 47.144 178.122 47.144ZM180.522 47.06L180.474 45.776H180.426L180.438 41.684L179.25 41.588V41.216L180.846 41.072L181.086 41.12L181.062 42.404V46.508L182.19 46.616V47L180.522 47.06ZM183.145 47V46.58L184.489 46.532H184.717L186.025 46.58V47H183.145ZM184.273 47C184.273 46.744 184.273 46.468 184.273 46.172C184.281 45.876 184.285 45.576 184.285 45.272C184.285 44.968 184.285 44.676 184.285 44.396V43.772C184.285 43.532 184.285 43.3 184.285 43.076C184.285 42.852 184.281 42.632 184.273 42.416C184.273 42.192 184.273 41.972 184.273 41.756L183.097 41.744V41.372L184.549 41.048L184.789 41.084L184.885 42.308H184.921V44.396C184.921 44.676 184.921 44.968 184.921 45.272C184.929 45.576 184.933 45.876 184.933 46.172C184.933 46.468 184.933 46.744 184.933 47H184.273ZM187.249 47V46.58L188.581 46.532H188.809L190.129 46.58V47H187.249ZM188.365 47C188.365 46.744 188.365 46.468 188.365 46.172C188.373 45.876 188.377 45.576 188.377 45.272C188.377 44.968 188.377 44.676 188.377 44.396V43.064C188.377 42.512 188.265 42.116 188.041 41.876C187.817 41.628 187.497 41.504 187.081 41.504C186.833 41.504 186.585 41.548 186.337 41.636C186.097 41.724 185.845 41.856 185.581 42.032C185.325 42.208 185.053 42.428 184.765 42.692L184.729 42.236H184.993C185.209 41.964 185.433 41.732 185.665 41.54C185.905 41.348 186.157 41.2 186.421 41.096C186.685 40.992 186.969 40.94 187.273 40.94C187.817 40.94 188.241 41.104 188.545 41.432C188.857 41.76 189.013 42.264 189.013 42.944V44.396C189.013 44.676 189.013 44.968 189.013 45.272C189.021 45.576 189.025 45.876 189.025 46.172C189.025 46.468 189.025 46.744 189.025 47H188.365ZM193.673 47.144C193.185 47.144 192.749 47.024 192.365 46.784C191.981 46.544 191.677 46.196 191.453 45.74C191.229 45.284 191.117 44.732 191.117 44.084C191.117 43.42 191.229 42.856 191.453 42.392C191.685 41.92 191.997 41.56 192.389 41.312C192.789 41.064 193.233 40.94 193.721 40.94C194.017 40.94 194.277 40.988 194.501 41.084C194.733 41.18 194.937 41.316 195.113 41.492C195.297 41.66 195.465 41.864 195.617 42.104H195.917L195.881 42.728C195.561 42.304 195.249 41.984 194.945 41.768C194.641 41.544 194.281 41.432 193.865 41.432C193.465 41.432 193.109 41.528 192.797 41.72C192.493 41.904 192.249 42.192 192.065 42.584C191.889 42.976 191.801 43.468 191.801 44.06C191.801 44.636 191.889 45.116 192.065 45.5C192.241 45.884 192.481 46.172 192.785 46.364C193.089 46.556 193.437 46.652 193.829 46.652C194.261 46.652 194.629 46.54 194.933 46.316C195.245 46.092 195.561 45.76 195.881 45.32L195.917 45.956H195.617C195.473 46.196 195.309 46.404 195.125 46.58C194.941 46.756 194.729 46.896 194.489 47C194.257 47.096 193.985 47.144 193.673 47.144ZM195.773 47.048L195.725 45.8H195.701V42.332L195.737 42.296L195.713 38.828L194.501 38.732V38.372L196.097 38.144L196.349 38.168V39.644V46.508L197.549 46.604V47L195.773 47.048Z" fill="white"/>
</svg>
