<svg width="128" height="128" viewBox="0 0 128 128" fill="none" xmlns="http://www.w3.org/2000/svg">
<circle cx="64" cy="64" r="64" fill="white"/>
<path d="M24.996 47.284C24.996 39.648 31.1933 35 41.8727 35C51.888 35 58.7493 38.984 58.7493 45.126C58.7493 48.3907 56.702 50.8253 52.7733 50.8253C49.7853 50.8253 47.738 49.3867 45.8013 46.122C43.92 43.0233 41.762 41.4187 39.7147 41.4187C37.944 41.4187 36.8373 42.636 36.8373 44.628C36.8373 53.7027 59.7453 53.1493 59.7453 67.702C59.7453 75.7807 52.718 80.5393 41.264 80.5393C30.6953 80.5393 24 76.4447 24 69.7493C24 65.71 26.324 63.1093 30.0313 63.1093C33.0193 63.1093 35.3433 64.8247 36.948 68.366C38.6633 72.018 41.264 74.1207 43.754 74.1207C45.8567 74.1207 47.074 72.7927 47.074 70.4687C47.074 60.564 24.996 61.6153 24.996 47.284Z" fill="black"/>
<path d="M69.7084 77.164C70.483 77.164 70.7597 76.3893 70.2064 75.8913C65.835 71.9073 63.2897 65.6547 63.2897 57.6867C63.2897 43.798 71.0364 35 83.3757 35C95.715 35 103.462 43.798 103.462 57.7973C103.462 71.6307 95.9364 80.484 84.1504 80.484C83.5417 80.484 83.3757 81.148 83.9844 81.48C86.419 82.808 89.573 83.5827 92.6164 83.5827C97.9284 83.5827 98.703 80.318 101.138 80.318C102.687 80.318 103.462 81.646 103.462 83.97C103.462 89.3373 98.9244 93.266 92.7824 93.266C82.2137 93.266 76.293 81.7013 69.653 81.7013C67.163 81.7013 65.9457 83.3613 64.4517 83.3613C63.6217 83.3613 63.0684 82.808 63.0684 81.7013C63.0684 79.1007 65.8904 77.164 69.7084 77.164ZM84.759 71.852C88.3004 71.852 90.569 67.4807 90.569 60.4533C90.569 51.3233 86.6957 43.6873 81.937 43.6873C78.3957 43.6873 76.1824 48.0033 76.1824 54.9753C76.1824 64.216 80.0557 71.852 84.759 71.852Z" fill="black"/>
</svg>
