<svg width="280" height="211" viewBox="0 0 280 211" fill="none" xmlns="http://www.w3.org/2000/svg">
<path d="M3.6 44.7999C3.6 17.1999 26 0.399902 64.6 0.399902C100.8 0.399902 125.6 14.7999 125.6 36.9999C125.6 48.7999 118.2 57.5999 104 57.5999C93.2 57.5999 85.8 52.3999 78.8 40.5999C72 29.3999 64.2 23.5999 56.8 23.5999C50.4 23.5999 46.4 27.9999 46.4 35.1999C46.4 67.9999 129.2 65.9999 129.2 118.6C129.2 147.8 103.8 165 62.4 165C24.2 165 0 150.2 0 126C0 111.4 8.4 102 21.8 102C32.6 102 41 108.2 46.8 121C53 134.2 62.4 141.8 71.4 141.8C79 141.8 83.4 137 83.4 128.6C83.4 92.7999 3.6 96.5999 3.6 44.7999Z" fill="white"/>
<path d="M157.211 152.8C160.011 152.8 161.011 150 159.011 148.2C143.211 133.8 134.011 111.2 134.011 82.3999C134.011 32.1999 162.011 0.399902 206.611 0.399902C251.211 0.399902 279.211 32.1999 279.211 82.7999C279.211 132.8 252.011 164.8 209.411 164.8C207.211 164.8 206.611 167.2 208.811 168.4C217.611 173.2 229.011 176 240.011 176C259.211 176 262.011 164.2 270.811 164.2C276.411 164.2 279.211 169 279.211 177.4C279.211 196.8 262.811 211 240.611 211C202.411 211 181.011 169.2 157.011 169.2C148.011 169.2 143.611 175.2 138.211 175.2C135.211 175.2 133.211 173.2 133.211 169.2C133.211 159.8 143.411 152.8 157.211 152.8ZM211.611 133.6C224.411 133.6 232.611 117.8 232.611 92.3999C232.611 59.3999 218.611 31.7999 201.411 31.7999C188.611 31.7999 180.611 47.3999 180.611 72.5999C180.611 106 194.611 133.6 211.611 133.6Z" fill="white"/>
</svg>
